<svg xmlns="http://www.w3.org/2000/svg" viewBox="0 0 512 512" fill="#764ba2"><!-- Font Awesome Free 5.15.4 by @fontawesome - https://fontawesome.com License - https://fontawesome.com/license/free (Icons: CC BY 4.0, Fonts: SIL OFL 1.1, Code: MIT License) --><path d="M256 224c-79.41 0-192 122.76-192 200.25 0 34.9 26.81 55.75 71.74 55.75 48.84 0 81.09-25.08 120.26-25.08 39.51 0 71.85 25.08 120.26 25.08 44.93 0 71.74-20.85 71.74-55.75C448 346.76 335.41 224 256 224zm-147.28-12.61c-10.4-34.65-42.44-57.09-71.56-50.13-29.12 6.96-44.29 40.69-33.89 75.34 10.4 34.65 42.44 57.09 71.56 50.13 29.12-6.96 44.29-40.69 33.89-75.34zm143.74-27.95c-13.01-33.76-47.36-53.3-76.72-43.65-29.37 9.65-41.54 45.17-28.53 78.93 13.01 33.76 47.36 53.3 76.72 43.65 29.37-9.65 41.54-45.17 28.53-78.93zm110.54 43.65c29.37-9.65 63.72 9.89 76.72 43.65 13.01 33.76 .84 69.28-28.53 78.93-29.36 9.65-63.71-9.89-76.72-43.65-13.01-33.76-.84-69.28 28.53-78.93zm-12.61-125.48c10.4-34.65-4.77-68.38-33.89-75.34-29.12-6.96-61.16 15.48-71.56 50.13-10.4 34.65 4.77 68.38 33.89 75.34 29.12 6.96 61.16-15.48 71.56-50.13z"/></svg>